<?xml version="1.0" encoding="iso-8859-1"?>
<!-- Uploaded to: SVG Repo, www.svgrepo.com, Generator: SVG Repo Mixer Tools -->
<svg height="800px" width="800px" version="1.1" id="Layer_1" xmlns="http://www.w3.org/2000/svg" xmlns:xlink="http://www.w3.org/1999/xlink" 
	 viewBox="0 0 392.598 392.598" xml:space="preserve">
<g>
	<path style="fill:#FFFFFF;" d="M243.717,104.21c-37.495,0-72.339,16.226-96.453,44.735c0.259,1.616,0.323,115.976,0.323,115.976
		c0,6.012-4.848,10.925-10.925,10.925h-6.206v11.83c21.657,43.119,64.97,69.947,113.261,69.947
		c69.883,0,126.642-56.824,126.642-126.642C370.36,161.099,313.535,104.21,243.717,104.21z"/>
	<path style="fill:#FFFFFF;" d="M38.917,370.812h24.178v-58.117c0-6.012,4.848-10.925,10.925-10.925s10.925,4.848,10.925,10.925
		v58.117h24.178v-94.966H38.917V370.812z"/>
</g>
<g>
	<path style="fill:#56ACE0;" d="M348.897,230.917c0,57.794-46.998,104.792-104.792,104.792c-28.444,0-54.885-11.313-74.214-30.707
		v-148.17c17.584-17.778,40.727-28.509,65.745-30.513c-1.552,1.875-2.457,4.267-2.457,6.917v97.616
		c0,6.012,4.848,10.925,10.861,10.925h55.273c6.012,0,10.925-4.848,10.925-10.925c0-6.077-4.848-10.861-10.925-10.861h-44.347
		v-86.691c0-2.651-0.905-5.042-2.457-6.917C306.36,130.65,348.897,175.903,348.897,230.917z"/>
	<path style="fill:#56ACE0;" d="M73.956,21.915c-14.739,0-26.764,11.96-26.764,26.764c0,14.739,11.96,26.764,26.764,26.764
		c14.739,0,26.764-11.96,26.764-26.764C100.655,33.875,88.695,21.915,73.956,21.915z"/>
</g>
<path style="fill:#FFC10D;" d="M126.19,253.996V153.923c0-10.537-8.145-19.071-18.36-19.911l-23.855,52.17
	c-3.879,8.469-15.903,8.469-19.846,0l-23.855-52.17c-10.279,0.84-18.36,9.438-18.36,19.911v100.073L126.19,253.996L126.19,253.996z"
	/>
<g>
	<path style="fill:#194F82;" d="M73.956,97.164c26.828,0,48.614-21.786,48.614-48.549C122.57,21.786,100.784,0,73.956,0
		S25.406,21.786,25.406,48.614C25.406,75.378,47.192,97.164,73.956,97.164z M73.956,21.915c14.739,0,26.828,11.96,26.828,26.764
		c0,14.739-11.96,26.764-26.764,26.764S47.192,63.418,47.192,48.679S59.216,21.915,73.956,21.915z"/>
	<path style="fill:#194F82;" d="M244.105,82.424c-40.404,0-78.093,16.162-105.956,44.671c-7.628-9.115-19.135-14.933-32-14.933
		h-5.301c-4.267,0-8.145,2.457-9.891,6.335L74.02,155.41l-16.937-36.913c-1.745-3.879-5.624-6.335-9.891-6.335h-5.301
		C18.683,112.097,0,130.844,0,153.859v110.998c0,6.012,4.848,10.925,10.925,10.925h6.206v105.891
		c0,6.012,4.848,10.925,10.925,10.925h91.927c6.012,0,10.925-4.848,10.925-10.925v-54.949
		c27.733,32.97,68.719,52.558,113.261,52.558c81.842,0,148.428-66.586,148.428-148.428
		C392.533,149.01,325.948,82.424,244.105,82.424z M108.994,370.812H84.816v-58.117c0-6.012-4.848-10.925-10.925-10.925
		c-6.077,0-10.925,4.848-10.925,10.925v58.117H38.917v-94.966h70.077V370.812z M126.19,253.996H21.851V153.923h-0.065
		c0-10.537,8.145-19.071,18.36-19.911L64,186.182c3.879,8.469,15.903,8.469,19.846,0l23.855-52.17
		c10.279,0.84,18.36,9.438,18.36,19.911v100.073H126.19z M244.105,357.495c-48.291,0-91.539-26.828-113.261-69.947v-11.83h6.206
		c6.012,0,10.925-4.848,10.925-10.925c0,0-0.129-114.36-0.323-115.976c24.113-28.444,58.958-44.735,96.453-44.735
		c69.883,0,126.642,56.824,126.642,126.642C370.748,300.735,313.923,357.495,244.105,357.495z"/>
	<path style="fill:#194F82;" d="M299.378,219.992H255.03v-86.691c0-6.012-4.848-10.925-10.925-10.925
		c-6.012,0-10.925,4.848-10.925,10.925v97.616c0,6.012,4.848,10.925,10.925,10.925h55.273c6.012,0,10.925-4.848,10.925-10.925
		C310.303,224.84,305.39,219.992,299.378,219.992z"/>
</g>
</svg>